<?xml version="1.0" encoding="utf-8"?>
<!-- Generator: Adobe Illustrator 28.1.0, SVG Export Plug-In . SVG Version: 6.00 Build 0)  -->
<svg version="1.1" id="Layer_1" xmlns="http://www.w3.org/2000/svg" xmlns:xlink="http://www.w3.org/1999/xlink" x="0px" y="0px"
	 viewBox="0 0 1024 1024" style="enable-background:new 0 0 1024 1024;" xml:space="preserve">
<style type="text/css">
	.st0{fill:#DB1471;}
	.st1{fill:#0F1C35;}
	.st2{fill:#FFFFFF;}
</style>
<path class="st0" d="M1002.58,1028.71H21.42c-12.52,0-22.76-10.24-22.76-22.76V24.79c0-12.52,10.24-22.76,22.76-22.76h981.16
	c12.52,0,22.76,10.24,22.76,22.76v981.16C1025.34,1018.47,1015.1,1028.71,1002.58,1028.71z"/>
<g>
	<path class="st2" d="M476.44,865.01c-43.37-35.66-83.09-68.33-126.49-104.01c52.47-32.2,94.03-57.63,142.42-86.17
		C487.37,731.02,481.49,808.31,476.44,865.01z"/>
	<path class="st2" d="M689.74,395.78L511.89,181.41c-15.25-18.39-42.5-20.98-60.95-5.79l-22.19,18.27
		c-79.55,65.48-122.41,165.48-114.98,268.25l19.75,272.99L666.4,533.96C714.79,504.72,725.84,439.29,689.74,395.78z"/>
</g>
</svg>
